<svg xmlns="http://www.w3.org/2000/svg" width="390" height="844" viewBox="0 0 390 844" role="img"><title>消息队列与编辑 / Android</title><style>text{font-family:"Microsoft YaHei","Segoe UI",sans-serif}</style><rect x="0" y="0" width="390" height="844" rx="0" fill="#F5F3ED" stroke="#7B8A98"/><rect x="0" y="0" width="390" height="24" rx="0" fill="#FFFFFF" stroke="#7B8A98"/><text x="20" y="17" font-size="12" fill="#17212B" font-weight="400">09:41</text><text x="298" y="17" font-size="11" fill="#17212B" font-weight="400">5G   100%</text><text x="16" y="62" font-size="20" fill="#17212B" font-weight="600">UM-12 消息队列与编辑</text><text x="348" y="61" font-size="22" fill="#365F45" font-weight="400">⋯</text><text x="16" y="92" font-size="13" fill="#52616E" font-weight="400">消息队列与编辑 · 当前示例仅供布局验收</text><text x="16" y="152" font-size="13" fill="#52616E" font-weight="400">当前运行</text><rect x="16" y="162" width="358" height="48" rx="8" fill="#E6EFE7" stroke="#7B8A98"/><text x="28" y="186" font-size="14" fill="#17212B" font-weight="400">正在总结资料</text><text x="16" y="240" font-size="13" fill="#52616E" font-weight="400">队列</text><rect x="16" y="250" width="358" height="48" rx="8" fill="#E6EFE7" stroke="#7B8A98"/><text x="28" y="274" font-size="14" fill="#17212B" font-weight="400">1.补充引用  2.生成待办</text><text x="16" y="328" font-size="13" fill="#52616E" font-weight="400">待发送文本</text><rect x="16" y="338" width="358" height="96" rx="8" fill="#FFFFFF" stroke="#7B8A98"/><text x="28" y="362" font-size="14" fill="#17212B" font-weight="400">补充每个结论的来源</text><rect x="14" y="702" width="362" height="72" rx="0" fill="#F5F3ED" stroke="#F5F3ED"/><rect x="16" y="712" width="173" height="44" rx="8" fill="#365F45" stroke="#7B8A98"/><text x="32" y="740" font-size="14" fill="#FFFFFF" font-weight="400">保存队列编辑</text><rect x="201" y="712" width="173" height="44" rx="8" fill="#FFFFFF" stroke="#7B8A98"/><text x="217" y="740" font-size="14" fill="#17212B" font-weight="400">移至队首</text><rect x="0" y="772" width="390" height="56" rx="0" fill="#FFFFFF" stroke="#7B8A98"/><text x="12.0" y="806" font-size="13" fill="#365F45" font-weight="400">对话</text><text x="109.5" y="806" font-size="13" fill="#52616E" font-weight="400">会话</text><text x="207.0" y="806" font-size="13" fill="#52616E" font-weight="400">任务</text><text x="304.5" y="806" font-size="13" fill="#52616E" font-weight="400">更多</text><rect x="145" y="835" width="100" height="4" rx="2" fill="#17212B" stroke="#17212B"/></svg>