<svg xmlns="http://www.w3.org/2000/svg" width="390" height="844" viewBox="0 0 390 844" role="img"><title>账号执行权限、Profile 与外观 / Android</title><style>text{font-family:"Microsoft YaHei","Segoe UI",sans-serif}</style><rect x="0" y="0" width="390" height="844" rx="0" fill="#F5F3ED" stroke="#7B8A98"/><rect x="0" y="0" width="390" height="24" rx="0" fill="#FFFFFF" stroke="#7B8A98"/><text x="20" y="17" font-size="12" fill="#17212B" font-weight="400">09:41</text><text x="298" y="17" font-size="11" fill="#17212B" font-weight="400">5G   100%</text><text x="16" y="62" font-size="20" fill="#365F45" font-weight="400">←</text><text x="44" y="62" font-size="20" fill="#17212B" font-weight="600">UM-22 账号执行权限、Profile …</text><text x="16" y="92" font-size="13" fill="#52616E" font-weight="400">账号执行权限、Profile 与外观 · 当前示例仅供布局</text><text x="16" y="113" font-size="13" fill="#52616E" font-weight="400">验收</text><text x="16" y="152" font-size="13" fill="#52616E" font-weight="400">免审批</text><rect x="16" y="162" width="358" height="48" rx="8" fill="#FFFFFF" stroke="#7B8A98"/><text x="28" y="186" font-size="14" fill="#17212B" font-weight="400">开启（默认）  ▾</text><text x="16" y="240" font-size="13" fill="#52616E" font-weight="400">Agent Profile</text><rect x="16" y="250" width="358" height="96" rx="8" fill="#FFFFFF" stroke="#7B8A98"/><text x="28" y="274" font-size="14" fill="#17212B" font-weight="400">以简洁中文回答，优先说明结论。</text><text x="16" y="376" font-size="13" fill="#52616E" font-weight="400">主题</text><rect x="16" y="386" width="358" height="48" rx="8" fill="#FFFFFF" stroke="#7B8A98"/><text x="28" y="410" font-size="14" fill="#17212B" font-weight="400">跟随系统  ▾</text><rect x="14" y="702" width="362" height="72" rx="0" fill="#F5F3ED" stroke="#F5F3ED"/><rect x="16" y="712" width="173" height="44" rx="8" fill="#365F45" stroke="#7B8A98"/><text x="32" y="740" font-size="14" fill="#FFFFFF" font-weight="400">保存Profile</text><rect x="201" y="712" width="173" height="44" rx="8" fill="#FFFFFF" stroke="#7B8A98"/><text x="217" y="740" font-size="14" fill="#17212B" font-weight="400">切换免审批</text><rect x="145.0" y="835" width="100" height="4" rx="2" fill="#17212B" stroke="#17212B"/></svg>